<?xml version="1.0" standalone="no"?><!DOCTYPE svg PUBLIC "-//W3C//DTD SVG 1.1//EN" "http://www.w3.org/Graphics/SVG/1.1/DTD/svg11.dtd"><svg t="1609823312563" class="icon" viewBox="0 0 1024 1024" version="1.1" xmlns="http://www.w3.org/2000/svg" p-id="3056" xmlns:xlink="http://www.w3.org/1999/xlink" width="100" height="100"><defs><style type="text/css"></style></defs><path d="M292.571429 219.428571a73.142857 73.142857 0 0 0-73.142858 73.142858v438.857142a73.142857 73.142857 0 0 0 73.142858 73.142858h438.857142a73.142857 73.142857 0 0 0 73.142858-73.142858V292.571429a73.142857 73.142857 0 0 0-73.142858-73.142858H292.571429z m0-146.285714h438.857142a219.428571 219.428571 0 0 1 219.428572 219.428572v438.857142a219.428571 219.428571 0 0 1-219.428572 219.428572H292.571429a219.428571 219.428571 0 0 1-219.428572-219.428572V292.571429a219.428571 219.428571 0 0 1 219.428572-219.428572z" fill="#ffffff" p-id="3057"></path><path d="M453.485714 453.485714V365.714286a58.514286 58.514286 0 1 1 117.028572 0v87.771428H658.285714a58.514286 58.514286 0 1 1 0 117.028572H570.514286V658.285714a58.514286 58.514286 0 1 1-117.028572 0V570.514286H365.714286a58.514286 58.514286 0 1 1 0-117.028572h87.771428z" fill="#ffffff" p-id="3058"></path></svg>