<?xml version="1.0" standalone="no"?><!DOCTYPE svg PUBLIC "-//W3C//DTD SVG 1.1//EN" "http://www.w3.org/Graphics/SVG/1.1/DTD/svg11.dtd"><svg t="1609823403840" class="icon" viewBox="0 0 1024 1024" version="1.1" xmlns="http://www.w3.org/2000/svg" p-id="4715" xmlns:xlink="http://www.w3.org/1999/xlink" width="100" height="100"><defs><style type="text/css"></style></defs><path d="M380.371457 480.469208H100.097752A100.097752 100.097752 0 0 1 0 380.371457V100.097752A100.097752 100.097752 0 0 1 100.097752 0h280.273705a100.097752 100.097752 0 0 1 100.097751 100.097752v280.273705a100.097752 100.097752 0 0 1-100.097751 100.097751zM100.097752 80.078201a20.01955 20.01955 0 0 0-20.019551 20.019551v280.273705a20.01955 20.01955 0 0 0 20.019551 20.01955h280.273705a20.01955 20.01955 0 0 0 20.01955-20.01955V100.097752a20.01955 20.01955 0 0 0-20.01955-20.019551zM380.371457 1024H100.097752A100.097752 100.097752 0 0 1 0 923.902248V643.628543a100.097752 100.097752 0 0 1 100.097752-100.097751h280.273705a100.097752 100.097752 0 0 1 100.097751 100.097751v280.273705a100.097752 100.097752 0 0 1-100.097751 100.097752zM100.097752 623.608993a20.01955 20.01955 0 0 0-20.019551 20.01955v280.273705a20.01955 20.01955 0 0 0 20.019551 20.019551h280.273705a20.01955 20.01955 0 0 0 20.01955-20.019551V643.628543a20.01955 20.01955 0 0 0-20.01955-20.01955zM983.960899 178.173998H622.608016a40.039101 40.039101 0 0 1 0-80.078201h361.352883a40.039101 40.039101 0 0 1 0 80.078201zM983.960899 382.373412H622.608016a40.039101 40.039101 0 0 1 0-80.078202h361.352883a40.039101 40.039101 0 0 1 0 80.078202zM983.960899 722.705767H622.608016a40.039101 40.039101 0 0 1 0-80.078201h361.352883a40.039101 40.039101 0 0 1 0 80.078201zM983.960899 926.905181H622.608016a40.039101 40.039101 0 0 1 0-80.078202h361.352883a40.039101 40.039101 0 0 1 0 80.078202z" fill="#e6e6e6" p-id="4716"></path></svg>